<svg width="242" height="202" viewBox="0 0 242 202" fill="none" xmlns="http://www.w3.org/2000/svg">
<rect x="17.1572" y="0.618652" width="208" height="200.823" rx="20" transform="rotate(-0.082711 17.1572 0.618652)" fill="black"/>
<path d="M118.536 55.6818C119.056 53.817 119.505 51.9515 120.025 50.0867C120.737 50.7403 121.378 51.4652 121.728 52.4031C123.43 55.0072 125.203 57.6118 126.976 60.2165C127.542 61.2283 128.107 62.2401 128.817 63.1813C129.316 63.6891 129.742 64.1963 130.097 64.7748C135.703 64.6819 141.237 64.7322 146.842 64.7112C146.481 64.9955 146.118 65.3517 145.827 65.7805C144.806 67.3531 143.571 68.78 142.694 70.4258C141.311 72.3547 139.928 74.2836 138.617 76.2131C138.397 76.7144 138.034 77.0706 137.529 77.3537C137.093 77.7811 136.801 78.2818 136.724 78.9282C136.932 79.7211 137.212 80.5146 137.493 81.3081C137.85 81.527 137.918 81.9591 138.058 82.3199C138.616 84.1945 139.318 86.0703 139.804 87.9443C140.572 90.396 141.412 92.8484 142.253 95.3007C140.748 94.7838 139.244 94.1949 137.811 93.6785L137.671 93.3177L137.313 93.1707C136.758 91.0085 135.914 88.9875 135.358 86.8972C134.868 85.3828 134.379 83.8683 133.889 82.4258C134.98 80.9976 136 79.4969 136.948 77.9236C137.385 77.3524 137.893 76.7817 138.401 76.283C139.638 74.5685 140.803 72.8534 142.04 71.2109C142.695 70.354 143.136 69.2794 143.79 68.4225C138.184 68.4435 132.578 68.4645 126.973 68.4855C125.483 66.3148 124.065 64.1448 122.576 61.9741C122.01 60.9623 121.372 59.9499 120.662 59.0087C119.954 57.8518 119.245 56.7668 118.536 55.6818ZM107.92 69.2472C108.787 68.8236 109.724 68.4726 110.66 68.2654C110.363 69.3413 110.138 70.4178 109.769 71.493C107.174 72.3323 104.578 73.2435 101.913 73.9383C101.199 73.4285 100.485 72.9187 99.8425 72.4095L99.4152 71.9742C101.722 71.2042 104.171 70.5793 106.478 69.8093C106.982 69.742 107.487 69.5308 107.92 69.2472Z" fill="#0BAEEC"/>
<path d="M108.707 61.7761C109.379 59.0499 110.194 56.3249 111.009 53.6719C112.076 54.832 113.07 56.1353 113.848 57.5805L113.846 57.7962C113.105 60.2342 112.579 62.818 111.695 65.1828C111.182 66.1848 110.814 67.1881 110.589 68.2646C109.652 68.4718 108.715 68.8228 107.849 69.2464C107.415 69.5301 106.911 69.6693 106.406 69.8085C107.077 67.1542 107.964 64.5018 108.707 61.7761ZM99.8426 72.4094C100.485 72.9185 101.199 73.4284 101.913 73.9382C100.255 74.4984 98.5255 74.986 96.8675 75.5462C96.7198 75.9762 97.5802 76.1998 97.7926 76.5612C96.352 76.9077 94.9096 77.4698 93.5383 78.1045C93.4691 77.8162 93.2561 77.5267 93.0418 77.3809L90.3287 75.4149C93.5011 74.2932 96.6702 73.531 99.8426 72.4094ZM104.176 85.8949C105.247 86.6955 106.1 87.7099 107.171 88.4387C107.133 92.6088 107.096 96.7789 107.058 100.949C106.044 101.731 105.031 102.513 104.018 103.294C104.071 97.4705 104.052 91.6461 104.176 85.8949Z" fill="#FFF240"/>
<path d="M117.259 53.8728L118.465 55.6813C119.102 56.7657 119.883 57.7794 120.737 58.722C121.447 59.6632 122.085 60.6037 122.578 61.6868C124.068 63.8574 125.486 66.0274 126.975 68.1981C132.581 68.1771 138.187 68.1561 143.793 68.1351C143.138 68.992 142.625 70.0659 142.043 70.9235C140.805 72.638 139.64 74.3531 138.403 75.9956C137.896 76.4944 137.387 77.065 136.951 77.6363C136.002 79.2095 134.983 80.7103 133.892 82.1384C134.381 83.6529 134.871 85.0954 135.36 86.6099C135.916 88.772 136.76 90.793 137.316 92.8833L137.674 93.0304L137.814 93.3912C138.373 95.1938 138.859 97.0678 139.489 98.8711C138.057 98.2829 136.479 97.9809 135.047 97.3208C133.616 96.6606 132.111 96.2155 130.606 95.7704L130.68 95.4835C128.243 94.7423 125.88 93.858 123.515 93.0456C122.574 93.828 121.561 94.5378 120.62 95.3202L120.329 95.749C119.824 95.9601 119.39 96.2438 119.027 96.6C116.639 98.4478 114.179 100.295 111.789 102.215C111.211 102.641 110.489 102.922 109.982 103.421C110.033 97.7407 110.085 92.0607 110.065 86.3082C110.215 85.6624 109.499 85.3683 109.142 85.0775C106.715 83.3297 104.433 81.3676 101.787 79.8335C100.787 79.1773 99.9314 78.4505 99.0762 77.6518C98.649 77.2165 98.1492 76.8524 97.6494 76.4884C97.3646 76.1982 96.5761 75.9753 96.7243 75.4733C98.3831 74.8412 100.112 74.4255 101.77 73.8653C104.435 73.1705 107.031 72.2593 109.626 71.42C110.562 71.1409 111.499 70.8618 112.436 70.5827C113.408 66.493 114.738 62.4784 115.781 58.3893C116.226 56.8115 116.671 55.3055 117.117 53.7277M89.4193 104.312L96.0307 104.373L95.6891 141.975L89.0778 141.915C89.1914 129.405 89.305 116.895 89.4193 104.312ZM149.758 107.665C151.986 107.685 154.142 107.705 156.37 107.725C156.346 110.313 156.323 112.902 156.299 115.49C158.311 115.508 160.323 115.526 162.407 115.545L162.361 120.65L156.253 120.595C156.211 125.196 156.169 129.798 156.127 134.399C156.046 135.477 156.539 136.56 157.469 137.072C159.043 137.805 160.914 137.535 162.5 137.046L162.451 142.366C159.571 142.987 156.551 143.175 153.758 142.071C152.684 141.63 151.756 140.903 151.046 139.962C149.982 138.442 149.496 136.568 149.512 134.771C149.555 130.025 149.599 125.208 149.642 120.463L144.396 120.415C144.412 118.69 144.427 116.964 144.442 115.31C146.167 115.326 147.892 115.342 149.617 115.357C149.64 112.769 149.664 110.181 149.758 107.665ZM59.6311 116.05C61.9463 114.345 64.828 113.581 67.7019 113.679C70.5757 113.777 73.5887 114.379 75.6531 116.555C75.659 115.908 75.6642 115.333 75.6701 114.686C77.826 114.705 79.91 114.724 82.0659 114.744C81.9908 123.012 81.9157 131.28 81.8412 139.477C81.8158 142.281 80.7849 145.004 78.8975 147.072C78.0959 148.287 76.9376 149.211 75.567 149.774C71.595 151.895 66.7776 152.139 62.5488 150.878C61.1148 150.506 59.901 149.632 58.5408 149.044C58.0411 148.68 57.5413 148.316 57.0422 147.88L57.1193 147.306C57.6987 146.807 58.1364 146.092 58.8577 145.811C59.5103 145.17 60.163 144.529 60.8156 143.888C62.5978 145.486 64.9614 146.37 67.4061 146.249C69.705 146.341 72.0131 145.428 73.6091 143.788C74.9163 142.29 75.5095 140.282 75.1678 138.338L75.0914 138.84C72.9211 140.402 70.2544 141.241 67.5236 141.216C64.6485 141.262 61.8537 140.374 59.5691 138.699C59.5025 138.123 58.7845 138.045 58.4278 137.754C56.0733 135.863 54.5165 133.189 53.969 130.164C53.8338 129.228 53.6985 128.292 53.6352 127.356C53.8018 124.841 54.4707 122.403 55.6414 120.112C56.5188 118.466 57.8972 117.041 59.6311 116.05ZM62.5324 121.038C62.3116 121.611 61.7334 121.965 61.3695 122.465C58.7511 125.893 59.1385 130.714 62.2737 133.691C65.3403 136.307 69.867 136.42 72.9806 133.86C76.168 131.084 76.7141 126.344 74.3028 122.798C73.9487 122.22 73.3059 121.783 73.0243 121.133C69.9571 118.589 65.5734 118.549 62.5324 121.038ZM127.7 114.943C130.294 114.247 133.094 114.56 135.527 115.733C136.242 116.099 136.74 116.678 137.528 116.973C139.881 119.08 140.642 122.322 140.614 125.342C140.563 131.022 140.511 136.702 140.46 142.31L133.849 142.25C133.898 136.858 133.947 131.393 133.996 126.001C134.011 124.347 133.523 122.689 132.53 121.314C131.034 119.79 128.663 119.697 126.79 120.255C125.709 120.533 124.768 121.315 124.256 122.317C122.946 124.103 122.566 126.401 122.545 128.629L122.422 142.218L115.811 142.158C115.893 133.099 115.975 124.112 116.057 115.052L122.453 115.111C122.44 116.477 122.428 117.843 122.416 119.137C123.442 116.989 125.468 115.426 127.7 114.943ZM172.967 116.073C175.781 114.876 178.874 114.616 181.813 115.434C183.964 116.029 185.894 117.125 187.389 118.72C186.155 120.075 184.708 121.141 183.688 122.641C182.696 121.122 180.833 120.458 179.11 120.227C177.819 120 176.522 120.347 175.509 121.129C174.64 121.84 174.413 123.061 174.907 124.072C175.545 125.012 176.691 125.454 177.694 125.823C180.344 126.853 183.285 127.455 185.35 129.559C186.133 130.429 186.77 131.442 187.047 132.595C187.468 133.749 187.601 134.901 187.518 136.122C187.145 137.629 186.413 139.132 185.539 140.419C183.434 142.7 180.265 143.391 177.246 143.507C173.651 143.618 170.069 142.363 167.432 139.967C167.433 139.823 167.508 139.536 167.509 139.392C168.741 138.253 169.902 137.041 171.062 135.901C172.987 137.644 175.568 138.387 178.158 138.051C179.309 137.917 180.322 137.207 180.834 136.134L181.121 136.208C181.198 135.634 181.203 135.058 181.137 134.482L180.849 134.552C180.354 133.613 179.571 132.814 178.567 132.518C177.35 132.003 176.133 131.561 174.843 131.118C174.844 131.046 174.917 130.903 174.917 130.831C173.342 130.169 171.55 129.65 170.34 128.344C168.916 126.893 168.143 124.945 168.305 122.933C168.19 119.84 170.155 117.126 172.967 116.073ZM103.337 114.937L109.661 114.994C109.579 124.054 109.497 133.041 109.415 142.1L103.019 142.042L103.337 114.937Z" fill="white"/>
<path d="M114.292 56.1468C114.86 56.9429 115.356 57.7383 115.923 58.5345C114.88 62.6235 113.55 66.6381 112.578 70.7278C111.642 71.0069 110.705 71.2141 109.768 71.5651C110.137 70.4899 110.362 69.4134 110.66 68.3375C110.885 67.261 111.254 66.1858 111.766 65.2557C112.65 62.819 113.104 60.3065 113.845 57.8684C113.995 57.2227 114.143 56.7207 114.292 56.1468ZM93.5382 78.1048C94.9095 77.4702 96.3513 76.9799 97.7925 76.5616C98.2922 76.9256 98.792 77.2897 99.2193 77.725C100.074 78.5237 100.93 79.2505 101.93 79.9068C104.504 81.4401 106.786 83.4023 109.285 85.1507C109.713 85.5141 110.358 85.7357 110.208 86.3814C110.157 92.0614 110.105 97.7414 110.125 103.494C109.691 103.778 109.328 104.206 108.965 104.634C108.385 105.132 107.734 105.557 107.155 106.056C107.171 104.33 107.186 102.604 107.202 100.879C107.24 96.7087 107.278 92.5386 107.316 88.3685C106.172 87.6391 105.319 86.6247 104.32 85.8246C103.607 85.2429 102.891 84.8769 102.106 84.3664L96.823 80.4356C95.7529 79.563 94.6096 78.8336 93.4657 78.1761L93.5382 78.1048ZM120.763 95.3934C121.704 94.6111 122.717 93.9012 123.658 93.1188C126.022 94.0031 128.386 94.8155 130.823 95.5567L130.749 95.8437C132.253 96.3607 133.686 96.877 135.19 97.394C135.61 98.6921 136.03 99.9183 136.45 101.144C133.656 100.184 130.935 99.081 128.068 98.1922L121.478 95.8314C121.118 95.8281 120.977 95.6111 120.763 95.3934Z" fill="#EC272B"/>
</svg>
